<svg width="26" height="25" viewBox="0 0 26 25" fill="none" xmlns="http://www.w3.org/2000/svg">
<g clip-path="url(#clip0_84_275)">
<path d="M13 25C9.66113 25 6.52212 23.6998 4.16113 21.3389C1.80024 18.9779 0.5 15.8389 0.5 12.5C0.5 9.16113 1.80024 6.02212 4.16113 3.66113C6.52212 1.30024 9.66113 0 13 0C16.3389 0 19.4779 1.30024 21.8389 3.66113C24.1998 6.02212 25.5 9.16113 25.5 12.5C25.5 15.8389 24.1998 18.9779 21.8389 21.3389C19.4779 23.6998 16.3389 25 13 25ZM13 1.95312C7.18442 1.95312 2.45312 6.68442 2.45312 12.5C2.45312 18.3156 7.18442 23.0469 13 23.0469C18.8156 23.0469 23.5469 18.3156 23.5469 12.5C23.5469 6.68442 18.8156 1.95312 13 1.95312ZM17.577 14.6576C17.122 14.368 16.5184 14.5021 16.2289 14.9572C16.2168 14.9761 15.0015 16.8487 12.9512 16.8487C10.9009 16.8487 9.68555 14.9761 9.67349 14.9572C9.38394 14.5022 8.78037 14.3681 8.32534 14.6576C7.87031 14.9472 7.73618 15.5508 8.02573 16.0058C8.09839 16.1199 9.84077 18.8018 12.9512 18.8018C16.0616 18.8018 17.804 16.12 17.8766 16.0058C18.1662 15.5507 18.032 14.9472 17.577 14.6576ZM8.70312 8.05664C9.37729 8.05664 9.92383 8.60317 9.92383 9.27734C9.92383 9.95151 9.37729 10.498 8.70312 10.498C8.02895 10.498 7.48242 9.95151 7.48242 9.27734C7.48242 8.60317 8.02895 8.05664 8.70312 8.05664ZM16.0273 9.27734C16.0273 9.95151 16.5739 10.498 17.248 10.498C17.9222 10.498 18.4688 9.95151 18.4688 9.27734C18.4688 8.60317 17.9222 8.05664 17.248 8.05664C16.5739 8.05664 16.0273 8.60317 16.0273 9.27734Z" fill="black"/>
</g>
<defs>
<clipPath id="clip0_84_275">
<rect width="25" height="25" fill="white" transform="translate(0.5)"/>
</clipPath>
</defs>
</svg>
