<svg width="26" height="25" viewBox="0 0 26 25" fill="none" xmlns="http://www.w3.org/2000/svg">
<mask id="mask0_84_241" style="mask-type:luminance" maskUnits="userSpaceOnUse" x="1" y="0" width="24" height="25">
<path fill-rule="evenodd" clip-rule="evenodd" d="M1.06818 0.568268H24.9318V24.4319H1.06818V0.568268Z" fill="white"/>
</mask>
<g mask="url(#mask0_84_241)">
<path fill-rule="evenodd" clip-rule="evenodd" d="M12.996 22.5965C15.8822 22.5965 18.7684 22.5978 21.6546 22.5955C22.5222 22.5951 23.0906 22.0253 23.0947 21.1595C23.0974 20.6053 23.1038 20.0507 23.0883 19.497C23.0851 19.3833 23.0213 19.2357 22.9352 19.1656C21.8164 18.2544 20.6893 17.3537 19.5627 16.453C19.2267 16.1844 18.9829 16.1858 18.6359 16.4535C17.7509 17.1364 16.8695 17.8235 15.9839 18.5056C14.8257 19.3966 13.5291 19.3027 12.5074 18.2585C11.6049 17.3363 10.7015 16.4154 9.7986 15.4941C9.43238 15.1201 9.15921 15.1068 8.75495 15.4455C6.98987 16.9247 5.23671 18.4176 3.45238 19.8733C3.04491 20.2061 2.86249 20.5315 2.88999 21.0674C2.94041 22.0501 3.44459 22.596 4.42315 22.5965C7.28092 22.5969 10.1382 22.5965 12.996 22.5965ZM2.90373 17.9396C3.01786 17.848 3.08386 17.7971 3.14757 17.743C4.60831 16.5109 6.06951 15.2788 7.52933 14.0454C8.68573 13.0682 10.02 13.1204 11.0943 14.1907C12.0018 15.0946 12.9057 16.0021 13.8118 16.9069C14.1661 17.2608 14.4045 17.2796 14.8161 16.9821C15.769 16.2941 16.7168 15.5997 17.6725 14.9163C18.5855 14.264 19.7084 14.2796 20.6077 14.9488C20.8451 15.1257 21.0725 15.316 21.3044 15.5002C21.8846 15.9618 22.4654 16.4234 23.0951 16.9244V16.5623C23.0951 12.3568 23.0956 8.15129 23.0951 3.94581C23.0951 2.9397 22.5612 2.40434 21.5588 2.40434C15.8528 2.40388 10.1469 2.40388 4.44102 2.40434C3.43954 2.40434 2.90419 2.94062 2.90419 3.94489C2.90373 8.49415 2.90373 13.0439 2.90373 17.5936C2.90373 17.6889 2.90373 17.7838 2.90373 17.9396ZM22.1198 24.4321H3.8791C3.84426 24.417 3.81081 24.3954 3.7746 24.3885C2.10393 24.0668 1.06991 22.8228 1.06945 21.1209C1.06762 15.3757 1.06716 9.63063 1.0722 3.8855C1.07266 3.60132 1.09512 3.30934 1.16066 3.03387C1.51817 1.53456 2.77678 0.570165 4.36769 0.569706C10.1029 0.567414 15.8382 0.568331 21.5739 0.569248C23.5718 0.569706 24.9299 1.93517 24.9303 3.9428C24.9313 7.10688 24.9308 10.271 24.9308 13.435C24.9308 16.0161 24.934 18.5971 24.929 21.1782C24.9262 22.6394 24.0457 23.8555 22.6978 24.2795C22.508 24.339 22.3128 24.3817 22.1198 24.4321Z" fill="#404040"/>
</g>
<path fill-rule="evenodd" clip-rule="evenodd" d="M18.2028 8.82971C18.2023 7.99045 17.5029 7.29282 16.6659 7.29603C15.8285 7.29923 15.1319 8.00466 15.141 8.84025C15.1497 9.67218 15.8304 10.351 16.6614 10.3579C17.4978 10.3648 18.2032 9.6653 18.2028 8.82971ZM20.0389 8.83834C20.0407 10.6704 18.5048 12.2041 16.6746 12.1977C14.8142 12.1908 13.2944 10.6677 13.3026 8.81818C13.3113 6.97235 14.8147 5.47121 16.6664 5.45975C18.5108 5.44829 20.0371 6.97739 20.0389 8.83834Z" fill="#404040"/>
</svg>
