<svg width="26" height="25" viewBox="0 0 26 25" fill="none" xmlns="http://www.w3.org/2000/svg">
<mask id="mask0_84_110" style="mask-type:luminance" maskUnits="userSpaceOnUse" x="1" y="0" width="24" height="25">
<path fill-rule="evenodd" clip-rule="evenodd" d="M1.06824 0H24.9319V25H1.06824V0Z" fill="white"/>
</mask>
<g mask="url(#mask0_84_110)">
<path fill-rule="evenodd" clip-rule="evenodd" d="M2.67747 22.0215H11.5812V19.0444H2.67747V22.0215ZM2.68068 5.95359H16.3898V2.97656H2.68068V5.95359ZM2.68251 14.001H23.3258V11.0105H2.68251V14.001ZM2.03862 0C2.73912 0.234153 2.67154 0.823805 2.66377 1.39997H3.00992C7.68054 1.39997 12.3512 1.40042 17.0218 1.39908C17.2743 1.39863 17.5172 1.41121 17.7177 1.59098C17.9068 1.76132 17.9912 1.9739 17.9912 2.22153C17.9917 3.71858 17.9967 5.21609 17.9885 6.71314C17.9853 7.24077 17.6552 7.52795 17.0907 7.52795C12.3955 7.52885 7.70017 7.5284 3.00444 7.5284C2.89941 7.5284 2.79438 7.5284 2.67565 7.5284V9.4277H3.00398C9.9889 9.4277 16.9743 9.42815 23.9592 9.4259C24.2323 9.4259 24.5136 9.43803 24.6816 9.66455C24.8054 9.83083 24.9154 10.0542 24.9177 10.2537C24.9374 11.7508 24.9332 13.2479 24.9259 14.7454C24.9232 15.2896 24.5889 15.5719 23.9852 15.5719C16.9916 15.5723 9.99849 15.5723 3.00489 15.5723H2.67519V17.4716H3.00352C6.07861 17.4716 9.15369 17.4716 12.2288 17.4716C12.9019 17.472 13.1887 17.7565 13.1887 18.4257C13.1891 19.8414 13.1896 21.2571 13.1887 22.6733C13.1882 23.3083 12.8932 23.5996 12.2493 23.5996C9.17424 23.6005 6.09916 23.6 3.02407 23.6C2.91813 23.6 2.81173 23.6 2.64871 23.6C2.64871 23.8513 2.6656 24.0841 2.6446 24.3137C2.61446 24.6467 2.37426 24.9038 2.04364 24.9775C1.71212 25.0508 1.43539 24.9443 1.2372 24.6787C1.16231 24.5784 1.12075 24.4476 1.09016 24.3245C1.06459 24.2238 1.07417 24.1142 1.07417 24.0086C1.07372 16.3359 1.076 8.66277 1.06824 0.989645C1.06778 0.509204 1.22076 0.170334 1.69111 0H2.03862Z" fill="#404040"/>
</g>
</svg>
