<svg width="18" height="18" viewBox="0 0 18 18" fill="none" xmlns="http://www.w3.org/2000/svg">
<mask id="mask0_1_405" style="mask-type:luminance" maskUnits="userSpaceOnUse" x="0" y="0" width="18" height="18">
<path fill-rule="evenodd" clip-rule="evenodd" d="M0 0H18V18H0V0Z" fill="white"/>
</mask>
<g mask="url(#mask0_1_405)">
<path fill-rule="evenodd" clip-rule="evenodd" d="M1.55794 0.00846801C1.88931 -0.0276326 2.22854 0.0514971 2.56839 0.211215C3.28893 0.549613 4.00602 0.898221 4.72404 1.24391C8.75643 3.18605 12.7888 5.12929 16.8218 7.07034C17.1636 7.2348 17.4852 7.44228 17.6768 7.81642C17.9727 8.39476 18.1087 9.05697 17.8979 9.70751C17.565 10.7369 16.5885 11.0177 15.7991 11.3962C14.7937 11.8783 13.7908 12.3666 12.786 12.8505C9.35604 14.502 5.92547 16.1524 2.49615 17.8061C2.0696 18.0118 1.63898 18.0734 1.1961 17.8954C0.280189 17.5275 -0.16583 16.5006 0.087333 15.3523C0.30783 14.3532 0.526442 13.3529 0.74631 12.3534C0.947333 11.4403 1.14867 10.5276 1.35315 9.60103H1.56768C3.55372 9.60103 5.53976 9.60103 7.52548 9.60103C7.59019 9.60103 7.65489 9.60395 7.71897 9.59738C8.00888 9.56785 8.21179 9.30238 8.20393 8.96653C8.19545 8.60881 7.9649 8.37725 7.61029 8.37689C5.59504 8.37616 3.57979 8.37652 1.56453 8.37652C1.49512 8.37652 1.4257 8.37652 1.35032 8.37652C0.912468 6.37531 0.461737 4.39378 0.0518399 2.40059C-0.120286 1.56298 0.141358 0.846805 0.752906 0.356347C1.01329 0.147765 1.28279 0.0383696 1.55794 0.00846801Z" fill="white"/>
</g>
</svg>
