<svg width="26" height="25" viewBox="0 0 26 25" fill="none" xmlns="http://www.w3.org/2000/svg">
<mask id="mask0_84_261" style="mask-type:luminance" maskUnits="userSpaceOnUse" x="1" y="0" width="24" height="25">
<path fill-rule="evenodd" clip-rule="evenodd" d="M1.06821 0.568237H24.9318V24.4319H1.06821V0.568237Z" fill="white"/>
</mask>
<g mask="url(#mask0_84_261)">
<path fill-rule="evenodd" clip-rule="evenodd" d="M17.0636 6.44591C16.0274 5.04094 15.0296 3.68412 14.0222 2.33417C13.9704 2.26493 13.8416 2.22045 13.748 2.21999C12.218 2.21312 10.6883 2.21495 9.15823 2.21541C9.10137 2.21587 9.04406 2.22641 8.96794 2.23421C9.00004 2.28923 9.01655 2.32408 9.03901 2.35389C10.0115 3.6722 10.9864 4.98821 11.9538 6.30972C12.0419 6.43032 12.1382 6.44775 12.2688 6.44775C13.7833 6.44499 15.2978 6.44591 16.8119 6.44591H17.0636ZM2.6898 6.43237H9.96977C9.9583 6.39661 9.95601 6.37276 9.94409 6.35671C8.95001 5.00768 7.9564 3.65911 6.95682 2.31467C6.91555 2.25919 6.81697 2.22067 6.74406 2.21929C6.31718 2.21104 5.88983 2.20462 5.46387 2.21884C4.12223 2.26331 3.01352 3.16343 2.78793 4.47302C2.6788 5.10719 2.71823 5.76703 2.6898 6.43237ZM23.3169 6.4329C23.2862 5.76618 23.3256 5.099 23.2119 4.45888C22.9725 3.11398 21.8276 2.22303 20.4328 2.21661C19.0288 2.21019 17.6243 2.21524 16.2199 2.2157C16.1617 2.2157 16.1034 2.22441 16.0213 2.23083C16.0571 2.29181 16.0759 2.33216 16.102 2.36747C17.0727 3.68486 18.0425 5.00317 19.0205 6.31505C19.0733 6.38567 19.1966 6.44024 19.2874 6.44069C20.5442 6.44895 21.801 6.4462 23.0578 6.44574C23.1262 6.44574 23.194 6.43932 23.3169 6.4329ZM2.71601 8.10645C2.71601 8.21512 2.71601 8.29903 2.71601 8.38295C2.71601 12.2122 2.7151 16.041 2.71647 19.8703C2.71739 21.5779 3.92835 22.7885 5.63909 22.7894C10.5476 22.7912 15.4561 22.7912 20.3645 22.7894C22.0771 22.7885 23.2876 21.5802 23.2885 19.8717C23.2904 16.0346 23.289 12.198 23.2885 8.36094C23.2885 8.27932 23.2808 8.19724 23.2762 8.10645H2.71601ZM20.9244 24.4321H5.08057C5.02875 24.4178 4.97786 24.3972 4.92513 24.3903C2.75998 24.1097 1.08317 22.2503 1.07766 20.0677C1.06528 15.0269 1.06483 9.98663 1.07766 4.94634C1.08408 2.55596 3.05756 0.58332 5.44876 0.577359C10.481 0.564061 15.5138 0.566812 20.5461 0.575983C22.5049 0.579651 24.217 1.90117 24.7549 3.78944C24.8287 4.04897 24.8736 4.3163 24.9318 4.57997V20.4244C24.9172 20.4836 24.8979 20.5422 24.8878 20.6019C24.5875 22.3709 23.5948 23.5714 21.9148 24.1913C21.5979 24.3082 21.2554 24.3536 20.9244 24.4321Z" fill="#404040"/>
</g>
<path fill-rule="evenodd" clip-rule="evenodd" d="M11.3034 13.1093V17.7699C12.6546 16.9894 13.9779 16.225 15.3379 15.4391C13.9734 14.6513 12.6537 13.8888 11.3034 13.1093ZM9.64674 15.4412C9.64674 14.2228 9.64582 13.0045 9.64674 11.7857C9.64766 11.0016 10.2919 10.6256 10.9691 11.0158C13.0714 12.2273 15.1733 13.4401 17.2738 14.6548C17.9951 15.0716 17.996 15.8075 17.2779 16.2225C15.1839 17.4331 13.0889 18.6422 10.993 19.85C10.2855 20.2577 9.6472 19.8881 9.64674 19.0737C9.64582 17.8632 9.64674 16.6522 9.64674 15.4412Z" fill="#404040"/>
</svg>
